<svg width="3840" height="886" viewBox="0 0 3840 886" fill="none" xmlns="http://www.w3.org/2000/svg">
<path d="M0 476L262.5 133L518 378.5L941 0.5L1200 242L1374.5 94L1638.5 242L1802 57.5L2027.5 311L2195.5 242L2565 444.5L2984.5 193.5L3240 421L3412.5 228L3526.5 359.5L3738 124L3840 242V886H0V476Z" fill="#5AAFD6"/>
<path d="M532 392L262.5 133L0 476V886H1026L1025.5 885.5L532 392Z" fill="#56A9D1"/>
<path d="M1200 242L1374.5 94L1638.5 242L2958.5 884.5H557.5L1200 242Z" fill="#50A2C8"/>
<path d="M2565 444.5L2984.5 193.5L3240 421L3705 886H1806L1817.5 879L2565 444.5Z" fill="#54ACD4"/>
<path d="M3237 424.5L3412.5 228L3840 721V886H2818L2823 880.5L3237 424.5Z" fill="#4EA7D1"/>
</svg>
