<svg width="3854" height="1228" viewBox="0 0 3854 1228" fill="none" xmlns="http://www.w3.org/2000/svg">
<path d="M1789.46 731L2244.08 0L3064.3 880.5L3265.85 655.5L3384.88 762L3493.41 943L3695.96 722.5L3810.49 892L3842 853.5L3849.5 1228H0.5V1045.5L416.608 818L695.18 412L1073.78 774.5L1208.81 624.5L1322.34 725.5L1589.41 426L1789.46 731Z" fill="#8666ED"/>
<path d="M3839.89 856L3844.43 850.5L3853.49 856H3839.89Z" fill="#8666ED"/>
<path fill-rule="evenodd" clip-rule="evenodd" d="M3853.5 1228V856V839L3843.04 852.169L3810 892.5L3838.5 1222L3844 1227.5V1213.79L3849.5 1228H3853.5Z" fill="#8666ED"/>
<path fill-rule="evenodd" clip-rule="evenodd" d="M3385.71 1228H3455.4L3322.36 922L3235.84 984.5L3266.35 656L3050.29 866L3385.71 1228Z" fill="#734EEB"/>
<path fill-rule="evenodd" clip-rule="evenodd" d="M3695.99 722.473L3695.96 722.5L3696.17 722.815L3696.19 722.79L3697.1 724.151L3697.1 724.213L3697.96 725.5V725.441L3696 722.5L3695.99 722.473Z" fill="#734EEB"/>
<path fill-rule="evenodd" clip-rule="evenodd" d="M3588.95 838.993L3695.96 722.5L3776.94 842.35L3753.47 818.5L3748.47 835.5L3737.47 815.5L3727.97 828.5L3712.46 804.5L3698.96 838.5L3683.46 818.5L3676.45 840.5L3659.95 798.5L3643.95 825L3640.45 812.5L3623.94 837L3618.94 825L3588.95 838.993Z" fill="#EFECFC"/>
<path fill-rule="evenodd" clip-rule="evenodd" d="M3697.1 724.193L3695.96 722.5L3588.95 838.993L3618.94 825L3623.94 837L3640.45 812.5L3643.95 825L3659.95 798.5L3676.45 840.5L3683.46 818.5L3698.96 838.5L3699.08 838.194L3697.1 724.193Z" fill="white"/>
<path fill-rule="evenodd" clip-rule="evenodd" d="M1789.46 731L2140.85 165.998L2190.57 176L1965.01 903L1899.99 801.5L1677.94 1228H1545.16L1184.84 880.965L1322.34 725.5L1589.41 426L1589.83 426.643L1601.42 870L1694.94 723L1727.45 801.5L1746.95 741L1764.96 770L1787.58 728.123L1789.46 731ZM1184.94 880.689L1184.81 880.85V880.934L1184.83 880.953L1184.94 880.689ZM1184.31 880L1184.15 880.306L1074.02 774.232L1208.35 625.014L1184.31 880Z" fill="#734EEB"/>
<path fill-rule="evenodd" clip-rule="evenodd" d="M695.477 412.296L696.291 413.111L484.626 985.5L416.108 913L331.586 1065L242.063 978.5L90.2751 1228H1.00012V1045.5L417.108 818L695.477 412.296Z" fill="#734EEB"/>
<path fill-rule="evenodd" clip-rule="evenodd" d="M563.836 603.425L695.18 412L868.781 578.22L835.217 561L827.715 620.5L795.206 580.5L782.703 662L733.69 607.5L715.686 664.5L693.68 575.5L666.173 640.5L665.673 590L613.159 639.5L612.159 593L587.652 609.5L581.151 589L563.836 603.425Z" fill="#EFECFC"/>
<path fill-rule="evenodd" clip-rule="evenodd" d="M695.653 412.452L695.18 412L563.836 603.425L581.151 589L587.652 609.5L612.159 593L613.154 639.264L695.653 412.452Z" fill="white"/>
<mask id="mask0" mask-type="alpha" maskUnits="userSpaceOnUse" x="0" y="0" width="3849" height="1228">
<path d="M1788.96 731L2243.58 0L3063.8 880.5L3265.35 655.5L3384.38 762L3492.91 943L3695.46 722.5L3809.99 892L3841.5 853.5L3849 1228H0V1045.5L416.108 818L694.68 412L1073.28 774.5L1208.31 624.5L1321.84 725.5L1588.91 426L1788.96 731Z" fill="#8666ED"/>
</mask>
<g mask="url(#mask0)">
<path d="M1504.89 539.5L1470.38 557.5L1568.41 420.5H1601.92L1673.43 556L1650.93 532.5L1643.93 551.5L1632.42 528.5L1623.42 543.5L1605.92 518.5L1591.41 556L1574.91 532.5L1566.91 556L1549.4 511L1532.9 542L1529.4 525.5L1511.39 553.5L1504.89 539.5Z" fill="#EFECFC"/>
</g>
<mask id="mask1" mask-type="alpha" maskUnits="userSpaceOnUse" x="1470" y="420" width="204" height="138">
<mask id="mask2" maskUnits="userSpaceOnUse" x="0" y="0" width="3849" height="1228">
<path d="M1788.96 731L2243.58 0L3063.8 880.5L3265.35 655.5L3384.38 762L3492.91 943L3695.46 722.5L3809.99 892L3841.5 853.5L3849 1228H0V1045.5L416.108 818L694.68 412L1073.28 774.5L1208.31 624.5L1321.84 725.5L1588.91 426L1788.96 731Z" fill="#8666ED"/>
</mask>
<g mask="url(#mask2)">
<path d="M1504.89 539.5L1470.38 557.5L1568.41 420.5H1601.92L1673.43 556L1650.93 532.5L1643.93 551.5L1632.42 528.5L1623.42 543.5L1605.92 518.5L1591.41 556L1574.91 532.5L1566.91 556L1549.4 511L1532.9 542L1529.4 525.5L1511.39 553.5L1504.89 539.5Z" fill="#EFEBFC"/>
</g>
</mask>
<g mask="url(#mask1)">
<path d="M1594.91 637L1589.41 425V422.5H1587.91C1580.91 423.333 1566.51 425 1564.91 425C1562.91 425 1383.36 575.5 1382.36 577.5C1381.56 579.1 1523.73 617.833 1594.91 637Z" fill="white"/>
</g>
<path fill-rule="evenodd" clip-rule="evenodd" d="M2052.53 308L2116.05 238L2124.05 269L2167.56 190.5L2170.06 242L2245.58 167.5L2274.09 277L2290.09 216L2341.61 279.5L2351.11 190.5L2385.12 237L2390.62 172.5L2466.14 238.5L2465.27 237.449L2244.08 0L2052.53 308Z" fill="#EFECFC"/>
<mask id="mask3" mask-type="alpha" maskUnits="userSpaceOnUse" x="2052" y="0" width="415" height="308">
<path d="M2052.53 307.998L2116.05 238L2124.05 269L2167.56 190.5L2170.06 242L2245.58 167.5L2274.09 277L2290.09 216L2341.61 279.5L2351.11 190.5L2385.12 237L2390.62 172.5L2466.14 238.5L2465.27 237.443L2244.08 0L2052.53 307.998Z" fill="#E4DEFB"/>
</mask>
<g mask="url(#mask3)">
<path d="M2174.56 243.5L2252.58 -7.5L2239.58 -12L2052.53 270L2045.53 319.5L2174.56 243.5Z" fill="white"/>
</g>
</svg>
