<svg width="2049" height="1152" viewBox="0 0 2049 1152" fill="none" xmlns="http://www.w3.org/2000/svg">
<path d="M0 932.727L140.068 749.704L276.402 880.701L502.112 679.003L640.312 807.866L733.425 728.894L874.293 807.866L961.536 709.418L1081.86 844.684L1171.51 807.866L1368.67 915.918L1592.51 781.986L1728.84 903.379L1820.89 800.395L1881.72 870.563L1994.57 744.902L2049 807.866V1151.5H0V932.727Z" fill="#5AAFD6"/>
<path d="M283.872 887.905L140.068 749.704L0 932.727V1151.5H547.467L547.2 1151.23L283.872 887.905Z" fill="#56A9D1"/>
<path d="M640.312 807.866L733.425 728.894L874.293 807.866L1578.64 1150.7H297.479L640.312 807.866Z" fill="#50A2C8"/>
<path d="M1368.67 915.918L1592.51 781.986L1728.84 903.379L1976.96 1151.5H963.67L969.807 1147.76L1368.67 915.918Z" fill="#54ACD4"/>
<path d="M1727.24 905.246L1820.89 800.395L2049 1063.46V1151.5H1503.67L1506.34 1148.57L1727.24 905.246Z" fill="#4EA7D1"/>
</svg>
