<svg width="2049" height="1152" viewBox="0 0 2049 1152" fill="none" xmlns="http://www.w3.org/2000/svg">
<g clip-path="url(#clip0)">
<path d="M951.502 887.733L1193.23 499.042L1629.36 967.226L1736.53 847.588L1799.82 904.216L1857.53 1000.46L1965.23 883.213L2026.13 973.341L2042.88 952.869L2046.87 1152H0.265625V1054.96L221.52 933.993L369.644 718.113L570.954 910.863L642.756 831.104L703.122 884.809L845.129 725.557L951.502 887.733Z" fill="#8666ED"/>
<path d="M2041.76 954.199L2044.17 951.274L2049 954.199H2041.76Z" fill="#8666ED"/>
<path fill-rule="evenodd" clip-rule="evenodd" d="M2049 1152V954.199V945.159L2043.44 952.161L2025.87 973.606L2041.02 1148.81L2043.95 1151.73V1144.45L2046.87 1152H2049Z" fill="#8666ED"/>
<path fill-rule="evenodd" clip-rule="evenodd" d="M1800.26 1152H1837.32L1766.58 989.292L1720.58 1022.53L1736.8 847.854L1621.91 959.516L1800.26 1152Z" fill="#734EEB"/>
<path fill-rule="evenodd" clip-rule="evenodd" d="M1965.25 883.199L1965.23 883.213L1965.34 883.381L1965.36 883.368L1965.25 883.213L1965.25 883.199ZM1965.84 884.091L1965.84 884.124L1966.29 884.808V884.777L1965.84 884.091Z" fill="#734EEB"/>
<path fill-rule="evenodd" clip-rule="evenodd" d="M1908.33 945.155L1965.23 883.213L2008.29 946.943L1995.81 934.259L1993.15 943.298L1987.3 932.664L1982.25 939.576L1974.01 926.815L1966.83 944.893L1958.58 934.259L1954.86 945.957L1946.08 923.624L1937.57 937.715L1935.71 931.069L1926.94 944.096L1924.28 937.715L1908.33 945.155Z" fill="#EFECFC"/>
<path fill-rule="evenodd" clip-rule="evenodd" d="M1965.84 884.113L1965.23 883.213L1908.33 945.155L1924.28 937.715L1926.94 944.096L1935.71 931.069L1937.57 937.715L1946.08 923.624L1954.86 945.957L1958.58 934.259L1966.83 944.893L1966.89 944.731L1965.84 884.113Z" fill="white"/>
<path fill-rule="evenodd" clip-rule="evenodd" d="M951.502 887.733L1138.34 587.307L1164.78 592.626L1044.84 979.19L1010.27 925.22L892.199 1152L821.599 1152L630.008 967.473L703.122 884.809L703.122 884.808L845.129 725.557L845.354 725.899L851.512 961.643L901.241 883.479L918.527 925.22L928.898 893.05L938.472 908.47L950.499 886.203L951.502 887.733ZM630.059 967.326L629.991 967.412V967.457L630.001 967.467L630.059 967.326ZM642.51 831.377L629.725 966.96L629.725 966.96L629.644 967.123L571.083 910.721L642.51 831.377Z" fill="#734EEB"/>
<path fill-rule="evenodd" clip-rule="evenodd" d="M369.802 718.271L370.235 718.704L257.687 1023.06L221.255 984.507L176.312 1065.33L128.711 1019.33L48.0015 1152H0.531738V1054.96L221.787 933.993L369.802 718.271Z" fill="#734EEB"/>
<path fill-rule="evenodd" clip-rule="evenodd" d="M299.805 819.898L369.644 718.113L461.952 806.496L444.105 797.34L440.116 828.977L422.83 807.708L416.182 851.044L390.121 822.065L380.547 852.373L368.846 805.05L354.22 839.612L353.954 812.76L326.031 839.08L325.499 814.355L312.469 823.128L309.012 812.228L299.805 819.898Z" fill="#EFECFC"/>
<path fill-rule="evenodd" clip-rule="evenodd" d="M369.895 718.353L369.644 718.113L299.805 819.898L309.012 812.228L312.469 823.128L325.499 814.355L326.029 838.954L369.895 718.353Z" fill="white"/>
<mask id="mask0" style="mask-type:alpha" maskUnits="userSpaceOnUse" x="0" y="499" width="2047" height="653">
<path d="M951.236 887.733L1192.97 499.042L1629.09 967.226L1736.27 847.588L1799.56 904.216L1857.26 1000.46L1964.97 883.213L2025.86 973.341L2042.62 952.869L2046.61 1152H0V1054.96L221.255 933.993L369.379 718.113L570.689 910.863L642.49 831.104L702.856 884.809L844.864 725.557L951.236 887.733Z" fill="#8666ED"/>
</mask>
<g mask="url(#mask0)">
<path d="M800.187 785.908L781.838 795.479L833.96 722.633H851.778L889.806 794.681L877.839 782.186L874.116 792.288L868 780.059L863.213 788.035L853.905 774.742L846.193 794.681L837.418 782.186L833.163 794.681L823.855 770.754L815.079 787.237L813.218 778.464L803.644 793.352L800.187 785.908Z" fill="#EFECFC"/>
</g>
<mask id="mask1" style="mask-type:alpha" maskUnits="userSpaceOnUse" x="781" y="722" width="109" height="74">
<mask id="mask2" style="mask-type:alpha" maskUnits="userSpaceOnUse" x="0" y="499" width="2047" height="653">
<path d="M951.236 887.733L1192.97 499.042L1629.09 967.226L1736.27 847.588L1799.56 904.216L1857.26 1000.46L1964.97 883.213L2025.86 973.341L2042.62 952.869L2046.61 1152H0V1054.96L221.255 933.993L369.379 718.113L570.689 910.863L642.49 831.104L702.856 884.809L844.864 725.557L951.236 887.733Z" fill="#8666ED"/>
</mask>
<g mask="url(#mask2)">
<path d="M800.187 785.908L781.838 795.479L833.96 722.633H851.778L889.806 794.681L877.839 782.186L874.116 792.288L868 780.059L863.213 788.035L853.905 774.742L846.193 794.681L837.418 782.186L833.163 794.681L823.855 770.754L815.079 787.237L813.218 778.464L803.644 793.352L800.187 785.908Z" fill="#EFEBFC"/>
</g>
</mask>
<g mask="url(#mask1)">
<path d="M848.055 837.751L845.13 725.025V723.696H844.332C840.609 724.139 832.95 725.025 832.099 725.025C831.035 725.025 735.566 805.05 735.034 806.113C734.609 806.964 810.204 827.56 848.055 837.751Z" fill="white"/>
</g>
<path fill-rule="evenodd" clip-rule="evenodd" d="M1091.38 662.814L1125.16 625.593L1129.41 642.076L1152.55 600.336L1153.88 627.72L1194.03 588.106L1209.19 646.33L1217.7 613.895L1245.09 647.659L1250.14 600.336L1268.23 625.061L1271.15 590.765L1311.31 625.859L1310.85 625.3L1193.23 499.042L1091.38 662.814Z" fill="#EFECFC"/>
<mask id="mask3" style="mask-type:alpha" maskUnits="userSpaceOnUse" x="1091" y="499" width="221" height="164">
<path d="M1091.38 662.812L1125.15 625.593L1129.41 642.076L1152.55 600.336L1153.88 627.72L1194.03 588.106L1209.19 646.33L1217.7 613.895L1245.09 647.659L1250.14 600.336L1268.23 625.061L1271.15 590.765L1311.31 625.859L1310.84 625.297L1193.23 499.042L1091.38 662.812Z" fill="#E4DEFB"/>
</mask>
<g mask="url(#mask3)">
<path d="M1156.27 628.517L1197.75 495.055L1190.84 492.662L1091.38 642.608L1087.66 668.928L1156.27 628.517Z" fill="white"/>
</g>
</g>
<defs>
<clipPath id="clip0">
<rect width="2049" height="1152" fill="white"/>
</clipPath>
</defs>
</svg>
