<svg width="1440" height="1024" viewBox="0 0 1440 1024" fill="none" xmlns="http://www.w3.org/2000/svg">
<path d="M-537.786 401.004C-882.549 -180.148 -338.285 180.266 -249.133 -52.9435C-299.008 -233.774 -275.317 -130.264 -98.8836 51.8137C77.5502 233.892 152.363 -292.388 378.049 -119.664C603.734 53.0608 740.891 -21.7657 955.355 -21.7657C1169.82 -21.7657 1272.06 190.866 1227.18 319.318C1182.29 447.771 1047 924.79 1327.55 717.77C2154.87 107.28 917.903 1947.77 606.851 985.274C586.901 923.543 92.5127 839.986 19.5701 1145.53C-53.3725 1451.07 -296.514 1341.95 -315.218 1134.93C-333.921 927.907 -193.023 982.157 -537.786 401.004Z" fill="#92CAFF"/>
</svg>
